<?xml version="1.0" encoding="utf-8"?>
<!-- Generator: Adobe Illustrator 15.1.0, SVG Export Plug-In . SVG Version: 6.00 Build 0)  -->
<!DOCTYPE svg PUBLIC "-//W3C//DTD SVG 1.1//EN" "http://www.w3.org/Graphics/SVG/1.1/DTD/svg11.dtd">
<svg version="1.1" id="Layer_1" xmlns="http://www.w3.org/2000/svg" xmlns:xlink="http://www.w3.org/1999/xlink" x="0px" y="0px"
	 width="144px" height="144px" viewBox="0 0 144 144" enable-background="new 0 0 144 144" xml:space="preserve">
<g>
	<path d="M118.695,47.112c-0.153-0.838-0.338-1.606-0.536-2.343l-2.463,0.015l2.196-0.959c-1.546-4.961-4.138-7.467-6.981-8.56
		l-3.287,1.2l1.013-1.787c-0.366-0.053-0.733-0.093-1.1-0.112l-1.267,1.182l0.373-1.199c-5.035,0.068-9.646,2.841-9.646,2.841
		c-10.08,10.942-20.248,20.254-29.519,27.924c-4.024,1.37-6.408,4.859-6.796,5.466c-17.723,13.846-30.725,20.9-30.725,20.9
		c3.025-1.364,4.812-1.925,7.869-2.104c0.023-0.001,0.045-0.001,0.068-0.002c1.062-0.733,3.131-2.152,3.131-2.152l-1.619,2.151
		c2.182,0.11,4.058,0.732,5.65,1.697l1.845-0.825l-0.953,1.424c0.345,0.253,0.679,0.519,0.995,0.803l3.438-2.281l-2.648,3.058
		c2.818,2.975,4.287,7.086,4.705,10.281l1.818-0.509l-1.692,2.108c0.067,2.61-0.447,5.637-0.447,5.637
		c0.991-6.893,12.865-19.237,26.317-31.248c1.232-4.324-4.225-9.47-4.225-9.47c3.953,1.921,5.356,5.606,5.84,7.571
		c0.008,0.163,0.015,0.32,0.008,0.457c-0.039,0.845-0.316,1.2-0.316,1.2l0.544-0.423l7.038-5.477c0,0,0.334-0.727,0.165-1.714
		C103.415,58.397,118.695,47.112,118.695,47.112z M61.749,70.338c1.361-1.981,2.32-1.826,2.32-1.826L61.749,70.338z"/>
	<path d="M36.025,111.972c-5.509-1.815-10.307-8.05-5.364-16.603c0,0-7.795,11.549,3.612,18.363c0,0,5.803,3.029,11.897-2.634
		C46.171,111.099,41.719,113.361,36.025,111.972z"/>
	<path d="M30.931,104.748c1.304,3.354,6.074,7.087,11.968,4.838l-0.663-0.734c-4.775,1.704-9.075-0.861-10.561-4.107
		c-0.805-1.76-0.228-5.355-0.228-5.355S29.812,101.864,30.931,104.748z"/>
	<path d="M32.976,100.925c0,0,0.327,8.562,8.119,6.562l-1-0.897C40.095,106.589,34.502,108.312,32.976,100.925z"/>
	<path d="M38.565,104.959l-0.852-0.732c0,0-0.873,0.879-2.094-1.131C35.62,103.096,35.915,105.535,38.565,104.959z"/>
</g>
</svg>
